<?xml version="1.0" standalone="no"?>
<!DOCTYPE svg PUBLIC "-//W3C//DTD SVG 20010904//EN"
 "http://www.w3.org/TR/2001/REC-SVG-20010904/DTD/svg10.dtd">
<svg version="1.0" xmlns="http://www.w3.org/2000/svg"
 width="828.000000pt" height="820.000000pt" viewBox="0 0 828.000000 820.000000"
 preserveAspectRatio="xMidYMid meet">

<g transform="translate(0.000000,820.000000) scale(0.100000,-0.100000)"
fill="#000000" stroke="none">
<path d="M2905 7930 c-589 -203 -1080 -373 -1540 -535 -104 -37 -223 -78 -262
-92 l-73 -25 0 -217 0 -217 95 -77 c52 -43 95 -81 95 -85 0 -7 -351 -136 -402
-148 l-28 -6 1 -92 0 -91 95 -83 c58 -51 94 -90 94 -102 0 -16 -16 -24 -83
-45 -46 -14 -88 -25 -95 -25 -9 0 -12 -49 -12 -188 l0 -188 95 -79 c87 -73 95
-82 95 -115 l0 -35 -93 -26 -92 -25 -3 -186 -2 -185 95 -72 96 -72 -3 -42 -3
-42 -92 -25 -93 -24 0 -191 0 -190 95 -60 95 -60 0 -47 0 -46 -67 -20 c-38
-12 -80 -24 -95 -27 l-28 -7 0 -193 0 -193 95 -57 95 -58 0 -52 0 -53 -95 -22
-95 -22 2 -201 3 -202 92 -50 92 -50 1 -57 0 -57 -52 -15 c-29 -8 -72 -20 -96
-26 l-42 -11 2 -210 3 -211 88 -36 87 -35 0 -294 0 -293 42 -21 c24 -12 97
-46 163 -75 66 -29 119 -57 118 -61 0 -4 -61 -222 -133 -483 -73 -261 -151
-544 -174 -627 l-41 -153 -262 0 -263 0 0 -80 0 -80 3700 0 3700 0 0 85 0 85
-209 0 -210 0 -3 338 c-2 185 -5 1079 -6 1986 l-2 1650 -25 42 c-79 135 -298
225 -477 196 -40 -6 -82 -14 -93 -17 -16 -5 -45 21 -139 122 -65 70 -197 210
-292 309 l-174 181 0 534 c0 301 -5 565 -10 604 -21 147 -110 261 -263 334
-124 61 -247 84 -402 78 -200 -8 -344 -68 -480 -200 l-70 -68 -44 48 c-120
130 -355 379 -445 473 -126 131 -380 401 -471 500 -38 41 -188 200 -334 354
-147 153 -267 282 -269 287 -2 5 -11 9 -20 8 -9 0 -224 -72 -477 -159z m463
-112 l-3 -141 -155 -55 c-85 -29 -357 -124 -605 -209 -247 -85 -574 -198 -725
-250 -390 -135 -712 -243 -722 -243 -4 0 -8 62 -8 138 l0 139 238 82 c130 46
365 128 522 183 157 55 407 142 555 193 149 51 405 141 570 199 165 57 308
105 318 105 16 1 17 -10 15 -141z m209 -415 c85 -82 181 -172 214 -202 46 -42
59 -60 59 -82 0 -16 -3 -29 -6 -29 -3 0 -98 89 -211 198 -112 108 -208 198
-213 200 -4 2 -134 -45 -288 -103 -154 -58 -283 -105 -286 -105 -3 0 -4 12 -3
26 2 24 17 31 222 108 121 46 247 95 280 109 33 13 64 25 69 26 5 0 78 -65
163 -146z m38 -204 l195 -192 0 -158 c0 -88 -4 -159 -8 -159 -26 0 -32 30 -32
160 l0 136 -30 29 -30 29 0 -132 c0 -73 -4 -132 -8 -132 -5 0 -17 9 -27 20
-16 18 -17 33 -12 153 l7 133 -35 34 c-19 19 -36 30 -36 24 -1 -5 -2 -13 -4
-19 -1 -5 -3 -64 -4 -130 l-2 -120 -19 24 c-18 21 -20 39 -20 159 l0 136 -37
38 c-20 21 -41 38 -45 38 -4 0 -8 -59 -8 -132 l0 -131 -21 19 c-12 10 -30 18
-40 16 -18 -3 -19 5 -19 132 0 75 -3 136 -7 136 -3 0 -30 -8 -60 -17 l-53 -17
0 -137 c0 -140 -3 -149 -41 -149 -5 0 -9 59 -9 134 l0 134 -55 -21 -55 -20 0
-138 c0 -78 -4 -139 -9 -139 -5 0 -16 -3 -25 -6 -13 -5 -16 12 -18 129 l-3
134 -52 -20 -53 -20 0 -137 0 -138 -31 -11 c-18 -6 -34 -11 -35 -11 -2 0 -4
73 -4 163 l0 162 268 101 c147 56 270 102 274 103 4 1 95 -85 203 -190z m-915
-228 l0 -178 -219 -72 c-120 -39 -221 -71 -225 -71 -3 0 -6 78 -6 173 l0 174
223 76 c122 41 223 76 225 76 1 1 2 -79 2 -178z m1400 41 c107 -109 691 -713
781 -807 l67 -70 6 -124 7 -124 -232 234 c-128 129 -344 347 -481 485 l-248
251 0 121 c0 67 3 122 8 122 4 0 45 -40 92 -88z m-720 -130 l0 -97 -147 -50
c-82 -27 -195 -66 -252 -87 -58 -21 -106 -38 -108 -38 -2 0 -3 44 -3 98 l0 97
98 33 c53 18 162 57 242 86 80 30 151 55 158 55 9 1 12 -25 12 -97z m-1280
-111 l0 -169 -227 -76 c-125 -42 -228 -75 -229 -73 -2 1 -4 76 -5 167 l-2 164
214 78 c118 42 222 77 232 77 16 1 17 -13 17 -168z m1480 -196 c85 -77 178
-160 205 -184 50 -43 78 -101 49 -101 -7 0 -68 51 -136 113 -249 228 -288 259
-306 254 -9 -3 -123 -43 -252 -90 -129 -46 -249 -88 -266 -91 -29 -7 -31 -5
-27 18 6 28 -8 22 368 162 105 39 195 68 200 65 6 -3 80 -68 165 -146z m-880
-73 l0 -177 -67 -19 c-38 -11 -135 -41 -218 -68 -82 -26 -153 -48 -157 -48 -5
0 -8 76 -8 169 0 153 2 170 18 176 9 3 107 36 217 74 110 38 203 69 208 70 4
0 7 -79 7 -177z m-1369 121 c0 -23 16 -39 90 -93 66 -48 89 -71 89 -87 0 -13
-2 -23 -5 -23 -3 0 -46 30 -95 66 l-89 65 -128 -46 c-71 -26 -177 -64 -236
-86 l-108 -38 3 50 3 51 195 70 c107 38 211 76 230 83 49 19 50 18 51 -12z
m2738 -60 l51 -58 0 -148 0 -148 -60 53 -60 53 0 153 c0 85 4 152 9 152 5 0
32 -26 60 -57z m1671 -2 l65 -16 3 -181 2 -181 -57 13 c-76 18 -260 17 -348
-1 -38 -8 -103 -31 -143 -50 -41 -19 -76 -35 -78 -35 -2 0 -4 18 -4 40 0 35
-8 48 -76 120 l-75 81 23 27 c140 170 430 247 688 183z m-2129 -176 l198 -180
1 -152 c0 -84 -4 -153 -8 -153 -26 0 -32 30 -32 152 0 128 0 129 -27 153 -37
32 -40 31 -35 -10 2 -20 1 -80 -3 -133 l-7 -96 -20 24 c-18 22 -19 35 -14 151
l5 126 -40 39 -39 38 0 -134 c0 -132 0 -133 -20 -115 -18 16 -20 31 -20 149
l0 132 -45 44 -45 44 0 -134 0 -133 -23 22 c-15 13 -30 19 -40 15 -15 -6 -17
8 -17 134 l0 141 -60 -21 -60 -20 0 -134 c0 -130 -1 -135 -22 -143 l-23 -8 -3
134 c-2 109 -5 134 -16 130 -8 -3 -32 -11 -55 -18 l-41 -12 0 -139 c0 -77 -4
-138 -9 -138 -5 0 -16 -3 -25 -6 -14 -5 -16 10 -16 130 0 75 -1 136 -2 136 -2
0 -25 -9 -53 -19 l-50 -19 -3 -140 c-2 -135 -3 -140 -25 -146 -48 -13 -48 -15
-45 150 l3 156 120 43 c66 24 183 66 260 93 77 28 144 50 149 48 5 -1 98 -83
207 -181z m-1511 -79 c0 -172 0 -174 -22 -179 -13 -3 -97 -28 -188 -57 -91
-28 -184 -58 -207 -65 l-43 -13 0 167 0 168 228 75 c125 42 228 77 230 77 1 1
2 -77 2 -173z m2170 -97 l0 -144 -30 30 c-29 29 -30 33 -33 140 -2 61 -2 127
1 147 l4 36 29 -33 29 -33 0 -143z m-2923 81 c-1 -20 -6 -29 -15 -25 -7 2 -72
-18 -145 -45 -162 -62 -152 -60 -152 -32 0 21 15 29 145 77 80 29 150 54 157
54 8 1 11 -11 10 -29z m1353 -272 l0 -193 -218 -67 c-119 -38 -222 -68 -227
-68 -6 0 -9 70 -7 188 l3 187 217 72 c119 39 220 71 225 72 4 1 7 -86 7 -191z
m-1400 88 l0 -85 -205 -66 c-113 -36 -212 -68 -220 -71 -13 -5 -15 6 -15 72
l0 79 108 34 c59 18 155 52 212 76 58 23 108 43 113 44 4 0 7 -37 7 -83z
m2080 -24 l0 -98 -248 -82 c-137 -45 -252 -82 -255 -82 -4 0 -7 42 -7 93 l0
93 113 37 c61 20 173 59 247 86 74 27 138 50 143 50 4 1 7 -43 7 -97z m1160
-135 l0 -139 -39 33 -39 34 -1 145 -1 144 40 -39 40 -39 0 -139z m1170 157
c83 -21 167 -64 204 -103 l29 -30 2 -2241 c1 -2038 0 -2240 -14 -2235 -160 62
-446 79 -661 39 -41 -8 -78 -14 -82 -14 -5 0 -8 1016 -8 2259 l0 2258 58 26
c54 24 136 50 192 61 47 9 215 -3 280 -20z m-1637 -92 l48 -48 -3 -159 -3
-158 -57 52 -58 53 0 154 c0 119 3 154 13 154 7 0 34 -22 60 -48z m-1973 -186
l0 -185 -127 -40 c-194 -60 -329 -101 -337 -101 -3 0 -6 81 -6 180 0 163 2
181 18 187 48 20 429 142 440 143 9 0 12 -43 12 -184z m2588 107 c22 -19 22
-25 20 -154 l-3 -134 -42 39 -43 38 0 136 0 135 23 -20 c12 -11 32 -29 45 -40z
m-3275 -15 c66 -45 77 -57 77 -81 l0 -28 -27 19 c-16 10 -53 35 -84 55 l-55
37 -224 -75 c-123 -41 -227 -75 -232 -75 -4 0 -8 8 -8 18 0 15 43 34 223 99
122 44 229 81 237 82 8 0 50 -23 93 -51z m2177 -139 c215 -184 240 -208 240
-236 0 -13 -4 -23 -9 -23 -9 0 -91 67 -285 235 -70 61 -133 109 -139 107 -7
-2 -131 -48 -277 -103 -145 -54 -268 -99 -272 -99 -4 0 -8 14 -8 30 0 17 2 30
4 30 3 0 301 107 486 175 36 13 72 24 80 24 9 1 90 -62 180 -140z m680 -108
l0 -155 -30 29 -30 29 0 155 0 155 30 -29 30 -29 0 -155z m589 -46 l1 -129
-45 44 -45 44 0 124 0 125 44 -39 44 -39 1 -130z m-1235 -50 l184 -160 1 -159
c1 -158 1 -159 -19 -141 -18 16 -20 31 -20 144 0 122 -1 126 -27 153 -15 15
-30 28 -35 28 -4 0 -8 -60 -8 -132 l-1 -133 -20 24 c-18 22 -19 35 -15 147 l5
124 -37 35 -37 35 -3 -132 c-3 -129 -3 -130 -22 -113 -18 16 -20 32 -21 149
l-1 131 -44 39 -44 39 0 -139 0 -138 -27 26 c-16 14 -34 23 -40 21 -10 -4 -13
28 -13 136 0 78 -3 141 -7 141 -3 0 -30 -8 -60 -17 l-53 -17 0 -132 c0 -107
-3 -136 -16 -148 -8 -9 -20 -16 -25 -16 -5 0 -9 61 -9 141 l0 140 -22 -7 c-13
-4 -39 -12 -58 -19 l-35 -12 -3 -139 c-3 -135 -7 -153 -37 -154 -6 0 -9 50 -7
136 l4 137 -29 -6 c-15 -3 -40 -10 -55 -16 l-28 -11 0 -139 0 -139 -31 -11
c-18 -6 -34 -11 -35 -11 -2 0 -4 71 -4 159 l0 158 173 62 c94 34 213 76 262
94 84 31 92 32 112 18 13 -9 106 -88 207 -176z m-926 -72 l-3 -187 -165 -48
c-91 -26 -195 -57 -232 -67 l-68 -19 0 183 0 183 113 35 c61 19 162 51 222 70
61 20 116 36 123 36 10 1 12 -40 10 -186z m-1358 127 c0 -20 -4 -28 -13 -24
-7 2 -71 -16 -143 -41 -71 -25 -134 -45 -141 -45 -17 0 -9 31 11 42 18 10 264
96 279 97 4 1 7 -12 7 -29z m3207 -200 c2 -72 1 -136 -2 -141 -4 -5 -24 6 -45
23 l-40 33 0 150 0 150 42 -42 41 -42 4 -131z m-3247 13 l0 -88 -213 -63
c-116 -34 -215 -63 -219 -62 -5 0 -8 33 -8 74 l0 74 218 75 c119 41 218 75
220 76 1 0 2 -38 2 -86z m800 -116 l0 -183 -222 -63 c-123 -35 -229 -66 -235
-69 -10 -3 -13 36 -13 177 0 100 2 181 4 181 3 0 375 114 426 130 14 5 28 9
33 9 4 1 7 -81 7 -182z m2014 -63 c4 -86 5 -158 2 -161 -3 -3 -30 13 -61 37
l-55 42 0 165 0 165 54 -46 53 -46 7 -156z m556 179 l40 -36 0 -139 0 -139
-45 37 -45 36 0 139 c0 77 2 139 5 139 3 0 24 -16 45 -37z m-1290 -173 c0 -95
-1 -101 -22 -109 -13 -5 -128 -42 -255 -84 l-233 -75 0 102 0 101 143 45 c78
24 189 61 247 81 58 21 108 38 113 38 4 1 7 -44 7 -99z m1438 27 l42 -43 0
-133 0 -134 -42 35 -43 36 -5 141 c-3 77 -3 141 0 141 3 0 25 -19 48 -43z
m-573 11 c25 -21 25 -23 25 -187 l0 -165 -30 29 -30 29 0 158 c0 87 2 158 5
158 3 0 16 -10 30 -22z m-2832 -53 c59 -38 77 -55 77 -73 0 -23 0 -23 -57 9
-32 18 -70 40 -85 48 -25 15 -37 12 -235 -51 -273 -88 -253 -83 -253 -60 0 17
36 32 233 100 127 45 235 80 238 79 3 -1 40 -24 82 -52z m1287 -248 l0 -193
-62 -17 c-35 -9 -135 -37 -223 -62 -88 -24 -166 -45 -174 -45 -12 0 -13 30 -7
182 4 100 9 184 11 187 3 2 105 34 227 71 123 38 224 68 226 69 1 1 2 -86 2
-192z m1840 -105 c0 -120 -3 -152 -12 -146 -7 4 -25 17 -40 28 l-28 20 0 158
0 159 40 -33 40 -33 0 -153z m-908 46 c170 -136 204 -168 206 -192 3 -23 0
-28 -12 -23 -9 4 -105 77 -213 163 l-196 157 -276 -91 c-152 -51 -282 -92
-289 -92 -6 0 -12 10 -12 23 0 21 22 31 283 119 155 53 287 97 294 97 6 1 103
-72 215 -161z m-2292 48 c0 -18 -8 -27 -32 -36 -91 -32 -261 -90 -264 -90 -2
0 -4 11 -4 24 0 19 9 28 43 40 44 17 236 82 250 85 4 0 7 -10 7 -23z m760
-161 l0 -184 -82 -25 c-108 -32 -373 -106 -382 -106 -3 0 -5 84 -4 186 l3 186
220 63 c121 35 226 64 233 64 9 1 12 -42 12 -184z m2610 -93 l0 -144 -37 28
c-21 15 -41 33 -45 38 -4 6 -8 78 -8 161 l0 149 45 -44 45 -44 0 -144z m-1173
101 c71 -54 162 -123 201 -153 l71 -55 1 -157 c0 -87 -4 -158 -8 -158 -26 0
-32 30 -32 155 l0 130 -35 23 -35 22 0 -131 c0 -131 0 -132 -20 -114 -18 16
-20 31 -21 149 l0 131 -35 28 -34 29 0 -133 c0 -132 0 -133 -19 -114 -17 17
-21 41 -27 153 l-7 133 -37 29 c-21 17 -39 30 -41 30 -2 0 -2 -58 -1 -130 4
-129 -1 -148 -28 -115 -7 9 -21 13 -31 10 -18 -6 -19 2 -19 134 0 157 5 149
-75 123 l-50 -17 -3 -130 c-3 -145 -5 -155 -27 -155 -13 0 -15 20 -15 135 0
89 -4 135 -11 135 -5 0 -32 -7 -59 -16 l-49 -16 -3 -142 c-3 -132 -4 -141 -23
-144 -19 -3 -20 2 -17 133 4 151 7 146 -69 123 l-39 -11 0 -144 c0 -108 -3
-143 -12 -143 -7 0 -23 -3 -35 -6 l-23 -6 0 161 0 160 128 40 c70 22 183 58
252 79 69 22 132 41 141 41 9 1 75 -43 146 -96z m483 90 c1 -5 23 -24 50 -43
l50 -35 0 -158 0 -158 -60 43 -60 42 0 158 c0 99 4 158 10 158 6 0 10 -3 10
-7z m2512 -467 c2 -53 1 -96 -2 -96 -3 0 -80 75 -172 167 l-168 168 0 100 1
100 169 -171 169 -172 3 -96z m-5236 237 c-4 -5 -423 -133 -432 -133 -2 0 -4
37 -4 83 l0 82 88 23 c48 13 146 45 217 71 l130 47 3 -84 c2 -47 1 -87 -2 -89z
m3537 77 l28 -26 -3 -142 -3 -143 -42 36 -43 37 0 145 c0 161 -5 154 63 93z
m-563 -206 c0 -85 -3 -154 -7 -154 -4 0 -17 10 -30 22 -22 21 -23 27 -23 175
l0 154 30 -21 30 -21 0 -155z m-1570 -79 c0 -174 -2 -196 -17 -202 -9 -4 -112
-32 -230 -63 l-213 -57 0 196 0 197 88 24 c48 13 146 41 217 61 72 21 136 38
143 38 9 1 12 -44 12 -194z m-1281 98 c69 -41 81 -52 81 -75 l0 -26 -85 49
c-47 27 -90 49 -96 49 -5 0 -65 -18 -132 -39 -67 -22 -156 -49 -197 -61 -41
-12 -87 -25 -102 -30 -25 -8 -28 -7 -28 15 0 22 11 27 133 65 72 23 170 55
217 70 47 16 95 29 106 29 12 1 58 -20 103 -46z m3089 -65 l31 -33 3 -143 c2
-78 1 -142 -2 -142 -3 0 -22 14 -43 31 l-37 30 0 145 c0 79 4 144 8 144 4 0
22 -15 40 -32z m-1128 -81 l0 -94 -72 -20 c-318 -90 -438 -123 -440 -123 -2 0
-2 42 0 93 l3 93 247 71 c136 39 250 72 255 72 4 1 7 -41 7 -92z m-1280 -119
l0 -193 -103 -24 c-56 -13 -158 -38 -226 -57 -69 -19 -128 -34 -133 -34 -5 0
-7 84 -6 187 l3 187 210 62 c116 34 220 62 233 63 l22 1 0 -192z m4146 111
c14 -29 21 -249 7 -249 -4 0 -17 10 -30 22 -22 20 -23 29 -23 151 0 116 2 128
16 116 8 -7 22 -25 30 -40z m789 30 c33 -6 88 -24 122 -39 l63 -29 0 -125 c0
-69 -1 -126 -2 -126 -2 0 -28 10 -58 21 -64 25 -247 37 -317 21 l-43 -10 0
138 0 139 43 9 c59 14 123 14 192 1z m-2363 -86 l38 -37 0 -133 c0 -73 -3
-133 -6 -133 -3 0 -23 15 -44 33 l-40 32 0 138 c0 75 3 137 7 137 4 0 24 -17
45 -37z m-552 -240 c0 -90 -3 -163 -8 -163 -4 0 -31 16 -60 35 l-52 36 0 169
0 169 60 -41 60 -42 0 -163z m-2780 181 c0 -19 -4 -33 -8 -30 -4 2 -73 -15
-152 -40 -80 -24 -146 -44 -147 -44 -2 0 -3 13 -3 28 0 28 2 29 153 74 83 25
153 46 155 47 1 1 2 -15 2 -35z m5050 -137 l0 -119 -29 24 -30 23 0 124 -1
125 30 -29 30 -29 0 -119z m-1530 -99 l0 -139 -45 33 -44 33 -1 143 0 143 45
-37 45 -36 0 -140z m-1307 101 c278 -192 287 -200 287 -231 l0 -28 -58 37
c-95 62 -229 155 -298 206 -34 26 -69 47 -77 47 -7 0 -133 -36 -281 -80 -147
-44 -272 -80 -277 -80 -5 0 -9 13 -9 28 l0 28 268 81 c147 45 277 82 290 82
13 1 77 -37 155 -90z m2934 19 c21 -20 23 -29 23 -137 l0 -115 -30 29 c-30 28
-30 30 -30 137 0 59 3 108 7 108 4 0 17 -10 30 -22z m-2239 -8 c22 -18 22 -23
20 -180 l-3 -162 -27 22 -28 21 0 160 c0 87 3 159 8 159 4 -1 17 -9 30 -20z
m-2948 -78 l0 -88 -213 -57 c-118 -31 -217 -57 -221 -57 -4 0 -6 37 -4 81 l3
82 180 52 c99 29 191 58 205 63 48 20 50 18 50 -76z m1400 -152 l0 -200 -27
-6 c-16 -3 -117 -28 -226 -55 -108 -27 -199 -49 -202 -49 -3 0 -5 87 -5 194 0
177 2 195 18 200 9 3 94 25 187 50 94 25 184 50 200 55 58 18 55 27 55 -189z
m4383 154 c33 -8 78 -24 99 -35 l38 -19 0 -1875 0 -1875 -207 3 -208 3 -3
1901 -2 1902 27 4 c69 10 200 6 256 -9z m-3533 -102 c80 -53 171 -117 203
-141 l57 -43 0 -154 c0 -85 -2 -154 -4 -154 -2 0 -11 3 -20 6 -14 5 -16 27
-16 139 l0 134 -29 20 c-16 12 -32 21 -35 21 -3 0 -4 -56 -3 -125 1 -69 0
-125 -3 -125 -22 1 -28 28 -32 149 -5 134 -5 134 -34 158 -16 12 -32 23 -36
23 -4 0 -9 -56 -10 -125 -3 -117 -4 -125 -20 -113 -14 11 -18 38 -24 149 l-7
135 -41 27 -41 26 -3 -134 c-1 -74 -6 -135 -11 -135 -5 0 -14 6 -21 14 -6 8
-18 12 -26 9 -12 -4 -14 18 -14 135 l0 140 -60 -15 -60 -15 0 -139 c0 -78 -4
-139 -9 -139 -5 0 -16 -3 -25 -6 -14 -5 -16 10 -16 131 l0 137 -36 -7 c-88
-16 -84 -7 -84 -165 0 -78 -4 -140 -9 -140 -5 0 -16 -3 -24 -6 -12 -4 -14 16
-11 136 l3 142 -26 -7 c-14 -3 -38 -9 -54 -12 l-29 -5 0 -144 c0 -109 -3 -144
-12 -144 -7 0 -23 -3 -35 -6 l-23 -6 0 169 0 169 248 66 c136 37 256 67 267
67 12 1 86 -43 165 -97z m2708 -166 l-3 -118 -27 22 c-28 21 -28 22 -28 148
l0 127 30 -31 31 -30 -3 -118z m-4162 -234 c-6 -6 -434 -112 -452 -112 -11 0
-14 37 -14 193 l0 193 233 60 232 59 3 -194 c1 -107 0 -196 -2 -199z m2412
369 l33 -28 -3 -152 -3 -151 -37 26 -38 27 0 154 c0 84 3 153 8 153 4 -1 22
-13 40 -29z m-3100 -46 c61 -34 81 -51 84 -70 3 -14 3 -27 -1 -29 -3 -2 -40
16 -82 40 l-75 44 -220 -61 c-120 -33 -227 -62 -237 -65 -15 -5 -18 -1 -15 22
3 28 7 29 203 84 163 46 248 72 261 79 1 1 38 -19 82 -44z m4982 -199 l0 -130
-30 29 -30 29 0 123 0 124 30 -23 30 -22 0 -130z m-1682 -61 l3 -157 -46 37
-45 37 0 155 0 156 43 -35 42 -36 3 -157z m-578 -124 l0 -163 -27 17 c-16 10
-43 29 -60 42 l-33 24 0 164 0 165 60 -43 59 -42 1 -164z m2353 221 c27 -28
28 -31 25 -137 l-3 -108 -27 24 c-25 23 -27 30 -31 137 -2 61 -1 112 3 112 3
0 19 -13 33 -28z m-1625 -216 l3 -146 -46 32 -45 32 0 149 0 150 43 -35 42
-36 3 -146z m-1480 47 l-3 -97 -250 -63 c-137 -34 -253 -63 -257 -63 -5 0 -8
42 -8 93 l0 93 108 27 c59 15 170 44 247 66 77 21 146 39 153 40 10 1 12 -22
10 -96z m-2038 26 c0 -33 -3 -40 -15 -35 -9 3 -72 -8 -141 -24 -69 -17 -130
-30 -135 -30 -6 0 -9 14 -7 32 l3 31 135 33 c74 18 141 33 148 33 8 1 12 -13
12 -40z m1360 -187 l0 -198 -230 -55 -230 -56 2 195 3 195 220 57 c121 32 223
58 228 59 4 0 7 -88 7 -197z m1554 167 l26 -20 0 -160 0 -159 -35 22 -35 23 0
158 c0 86 4 157 9 157 4 0 20 -9 35 -21z m1989 -67 c14 -13 17 -33 17 -134 l0
-119 -30 23 -30 22 0 118 c0 125 1 126 43 90z m-4954 -193 c-11 -6 -121 -34
-376 -95 l-53 -12 0 87 0 88 78 17 c42 9 140 33 217 54 l140 37 3 -84 c2 -58
-1 -87 -9 -92z m811 -54 c0 -194 0 -195 -22 -200 -13 -3 -110 -25 -215 -50
-106 -25 -202 -45 -213 -45 -20 0 -20 5 -18 187 l3 187 225 57 c124 31 228 58
233 58 4 1 7 -87 7 -194z m4290 -3 l0 -123 -30 21 -30 21 0 132 0 131 30 -29
30 -29 0 -124z m-1872 130 l32 -24 0 -150 0 -149 -45 31 -45 31 0 150 c0 117
3 149 13 143 6 -4 27 -19 45 -32z m-889 -118 c172 -107 201 -129 201 -150 0
-13 -4 -24 -9 -24 -7 0 -64 35 -328 203 l-63 39 -242 -56 c-134 -31 -267 -63
-295 -70 l-53 -14 0 28 c0 26 4 29 78 48 42 12 149 37 237 58 88 20 183 42
210 49 28 7 53 13 56 14 3 1 97 -56 208 -125z m2853 39 c28 -26 28 -29 28
-142 l0 -115 -35 34 -35 34 0 108 c0 59 3 108 7 108 4 0 20 -12 35 -27z
m-1789 -56 c15 -12 17 -33 17 -156 0 -77 -2 -141 -5 -141 -3 0 -23 12 -45 26
l-40 27 0 149 0 149 28 -20 c15 -11 35 -27 45 -34z m-3278 -29 c75 -38 85 -46
85 -70 l0 -27 -75 41 -76 40 -207 -51 c-285 -69 -282 -69 -282 -39 0 22 10 26
218 77 119 30 224 57 232 62 8 5 16 9 17 9 2 0 41 -19 88 -42z m2237 -133
l153 -90 3 -163 c2 -161 2 -163 -18 -152 -18 10 -20 20 -20 139 l0 129 -32 21
-33 20 -3 -130 c-2 -125 -3 -129 -22 -119 -18 10 -20 22 -20 145 l0 135 -32
20 -33 20 -3 -125 c-2 -120 -8 -140 -29 -112 -10 12 -23 138 -23 229 0 45 -2
48 -43 73 -24 14 -46 25 -48 25 -2 0 -3 -63 -1 -141 l3 -140 -25 16 c-14 9
-30 14 -36 10 -7 -4 -10 41 -10 140 l0 146 -37 -7 c-96 -18 -88 -3 -91 -159
-2 -133 -7 -154 -34 -155 -5 0 -8 63 -8 140 0 79 -4 140 -9 140 -5 0 -32 -5
-60 -12 l-51 -11 0 -143 c0 -144 -3 -154 -39 -154 -5 0 -6 58 -3 130 2 71 2
135 -1 143 -4 11 -15 12 -56 3 l-51 -10 0 -147 c0 -156 -1 -159 -51 -159 -18
0 -19 9 -19 169 l0 169 93 21 c50 12 168 38 261 59 l169 39 53 -31 c30 -17
122 -72 206 -121z m1191 51 c16 -12 17 -29 15 -154 l-3 -141 -42 27 -43 27 0
148 0 148 28 -20 c15 -11 35 -27 45 -35z m-775 -1 c34 -23 53 -43 54 -58 4
-41 3 -307 -1 -307 -16 0 -111 74 -113 88 -4 45 -2 312 2 312 3 0 29 -16 58
-35z m2192 -217 c0 -125 -1 -126 -42 -90 -15 13 -18 33 -18 134 l0 119 30 -23
30 -22 0 -118z m-3560 -43 c0 -107 -2 -195 -5 -195 -3 0 -105 -22 -227 -50
-122 -27 -225 -50 -230 -50 -10 0 -11 361 0 376 6 10 400 110 445 113 16 1 17
-15 17 -194z m1580 -42 l0 -165 -32 21 -33 20 -3 165 -2 166 35 -21 35 -21 0
-165z m2108 -32 l-3 -123 -27 22 -28 21 0 132 0 132 30 -31 31 -30 -3 -123z
m-5048 124 c0 -34 -3 -43 -14 -39 -12 5 -177 -28 -263 -52 -21 -6 -23 -3 -23
33 l0 39 138 31 c75 17 143 31 150 32 8 1 12 -14 12 -44z m760 -179 c0 -177
-2 -195 -17 -200 -10 -3 -116 -25 -236 -49 l-217 -44 2 190 3 190 215 49 c118
26 219 50 225 52 5 3 13 5 18 5 4 1 7 -86 7 -193z m4393 106 c15 -17 17 -36
15 -135 l-3 -115 -26 22 c-25 21 -26 29 -32 144 -4 111 -4 121 12 113 9 -5 24
-18 34 -29z m-1986 -8 l33 -25 0 -160 c0 -87 -3 -159 -6 -159 -4 0 -22 9 -40
21 l-34 21 0 164 c0 90 3 164 7 164 3 0 21 -11 40 -26z m-1131 -211 c-5 -5
-482 -102 -504 -103 -10 0 -13 20 -10 87 l3 88 50 13 c28 6 142 34 255 60
l205 48 3 -94 c1 -52 1 -97 -2 -99z m-2076 89 l0 -88 -77 -18 c-43 -10 -134
-31 -203 -47 -69 -16 -133 -31 -142 -33 -16 -4 -18 5 -18 83 l0 87 218 51
c119 28 218 52 220 52 1 1 2 -39 2 -87z m3410 -180 l0 -153 -42 25 -43 26 -3
160 -3 161 45 -33 45 -33 1 -153z m150 -97 c0 -80 -3 -145 -8 -145 -4 0 -24
11 -45 25 l-37 26 0 150 0 150 45 -31 45 -31 0 -144z m1400 8 l0 -134 -30 23
-30 22 0 128 0 129 30 -18 30 -17 0 -133z m-2190 96 l50 -31 0 -164 c0 -90 -3
-164 -6 -164 -3 0 -28 12 -55 28 l-49 27 0 168 c0 92 2 167 5 167 3 0 27 -14
55 -31z m-2657 -10 c71 -29 77 -33 77 -60 0 -16 -4 -29 -10 -29 -5 0 -42 14
-80 32 l-71 31 -97 -22 c-93 -22 -364 -81 -369 -81 -2 0 -3 14 -3 30 0 17 3
30 8 30 4 0 101 22 217 49 116 27 219 50 230 50 11 1 55 -13 98 -30z m1287
-159 c0 -119 4 -180 11 -180 5 0 141 25 302 55 161 30 309 57 330 61 l37 6 0
-90 0 -90 -187 -36 c-249 -47 -1033 -186 -1718 -305 -159 -28 -314 -55 -344
-61 -101 -19 -92 -43 -89 232 l3 243 135 27 c202 40 180 56 180 -133 l0 -161
28 5 c15 3 75 14 135 23 l107 18 0 168 c0 92 1 168 3 168 2 0 101 20 220 45
120 25 224 45 232 45 13 0 15 -27 15 -171 l0 -171 48 7 c96 14 87 -7 84 193
l-3 177 228 51 c125 28 231 52 236 53 4 0 7 -80 7 -179z m867 102 c87 -43 182
-88 211 -100 43 -19 52 -27 52 -47 0 -17 -6 -25 -18 -25 -10 0 -107 44 -215
99 l-197 98 -98 -23 c-131 -31 -453 -96 -457 -92 -2 2 -5 12 -7 22 -2 16 7 22
52 34 110 28 476 110 497 111 12 1 93 -34 180 -77z m2825 -130 c2 -72 0 -132
-3 -132 -4 0 -18 9 -33 21 -26 20 -26 21 -26 162 l0 142 29 -30 c29 -30 30
-31 33 -163z m-2112 -89 c0 -90 -2 -163 -5 -163 -4 0 -19 7 -35 15 l-30 16 0
169 0 170 35 -22 35 -23 0 -162z m2206 161 l34 -26 0 -124 c0 -68 -3 -124 -6
-124 -3 0 -19 9 -34 20 l-29 21 -3 129 c-2 72 -2 130 0 130 2 0 19 -12 38 -26z
m-1948 -313 c1 -88 0 -161 -2 -161 -3 0 -21 8 -41 17 l-35 17 0 168 0 168 38
-23 37 -24 3 -162z m134 73 l38 -27 0 -153 c0 -85 -3 -154 -6 -154 -11 0 -74
41 -74 48 -7 242 -8 312 -3 312 4 0 24 -12 45 -26z m1593 -182 c4 -73 5 -135
2 -138 -3 -3 -19 2 -36 11 l-31 16 0 139 0 139 29 -17 29 -16 7 -134z m-1442
83 l37 -26 0 -154 c0 -85 -2 -155 -5 -155 -3 0 -23 11 -45 25 l-40 25 0 155
c0 85 3 155 8 155 4 0 24 -11 45 -25z m1566 -178 c1 -145 1 -145 -41 -109 -16
13 -18 34 -18 154 l0 140 29 -24 30 -23 0 -138z m107 52 l34 -21 0 -124 c0
-68 -2 -124 -5 -124 -2 0 -20 8 -40 17 l-35 17 0 128 c0 70 3 128 6 128 4 0
22 -9 40 -21z m-3108 -307 c18 -71 62 -241 98 -378 167 -639 227 -864 244
-926 l19 -67 -32 -6 c-18 -3 -51 -4 -75 -3 l-43 3 -50 110 c-72 157 -116 254
-302 660 -219 479 -219 478 -262 570 -20 44 -37 84 -38 89 -1 5 88 24 198 42
110 17 202 32 205 33 3 0 20 -57 38 -127z m2872 -119 c0 -73 -2 -133 -5 -133
-2 0 -16 5 -30 12 l-25 11 0 139 0 139 30 -18 30 -17 0 -133z m101 66 l29 -20
0 -130 0 -130 -29 17 c-26 15 -29 23 -35 92 -8 94 -8 192 0 192 3 0 19 -9 35
-21z m-4604 -81 c-3 -7 -41 -94 -85 -193 -110 -247 -442 -1005 -453 -1033 -8
-20 -15 -22 -84 -22 -68 0 -76 2 -71 18 27 86 246 864 313 1112 8 30 19 62 23
70 6 11 52 21 157 36 182 27 207 28 200 12z m4741 -8 l32 -20 0 -125 0 -125
-37 23 -38 24 -3 122 c-1 66 1 121 5 121 4 0 23 -9 41 -20z m-835 -102 l107
-11 0 -564 0 -563 -295 0 -295 0 0 554 0 555 53 10 c153 32 266 37 430 19z
m-3289 -149 c60 -21 110 -40 113 -42 2 -2 -17 -211 -42 -465 -25 -253 -45
-465 -45 -471 0 -8 -134 -11 -451 -11 -421 0 -451 1 -445 17 4 9 99 182 211
383 112 201 233 419 270 485 37 66 78 139 91 162 l24 42 83 -31 c45 -16 131
-47 191 -69z m2061 49 c3 -13 59 -249 123 -525 l118 -501 -64 -4 -65 -3 -19
45 c-135 308 -417 974 -415 977 5 5 226 30 274 32 36 1 43 -2 48 -21z m1800
-100 l25 -11 0 -139 c0 -76 -2 -138 -5 -138 -2 0 -16 5 -30 12 l-25 11 0 139
c0 76 2 138 5 138 2 0 16 -5 30 -12z m130 -70 l25 -11 0 -139 0 -139 -30 16
-30 16 0 134 c0 74 2 135 5 135 2 0 16 -5 30 -12z m129 -79 l36 -21 0 -125 0
-124 -40 22 -40 23 0 123 c0 68 2 123 4 123 3 0 21 -9 40 -21z m-3816 -232
l56 -119 -54 -219 -54 -219 -67 0 c-36 0 -68 2 -70 5 -3 2 -2 42 2 87 14 154
59 613 66 663 l6 50 29 -65 c16 -36 54 -118 86 -183z m605 -174 c92 -203 167
-371 167 -375 0 -5 -126 -8 -281 -8 -262 0 -280 1 -275 18 3 9 23 82 45 162
22 80 67 235 101 345 33 110 60 206 60 213 0 39 33 -24 183 -355z m731 -175
c47 -102 86 -190 86 -195 0 -5 -27 -9 -60 -9 -33 0 -60 1 -60 2 0 12 -51 352
-56 372 -12 48 2 21 90 -170z"/>
<path d="M5470 5860 l0 -130 60 0 60 0 0 130 0 130 -60 0 -60 0 0 -130z"/>
<path d="M5740 5829 c0 -115 2 -130 18 -135 9 -4 45 -19 80 -35 l62 -28 0 128
0 128 -52 26 c-29 14 -65 31 -80 36 l-28 11 0 -131z"/>
<path d="M5498 5493 l-28 -4 0 -130 0 -129 60 0 60 0 0 129 c0 125 -1 129 -22
135 -13 3 -27 5 -33 4 -5 0 -22 -3 -37 -5z"/>
<path d="M5756 5383 c-12 -145 -7 -193 20 -193 8 0 37 -11 64 -25 27 -14 52
-25 55 -25 3 0 5 60 5 133 l0 133 -65 27 c-36 15 -67 27 -69 27 -2 0 -6 -34
-10 -77z"/>
<path d="M5470 4873 l0 -128 60 0 60 0 0 128 0 127 -60 0 -60 0 0 -127z"/>
<path d="M5760 4843 l0 -128 58 -23 c31 -13 63 -26 70 -29 10 -4 12 22 10 127
l-3 132 -59 24 c-33 13 -63 24 -68 24 -4 0 -8 -57 -8 -127z"/>
<path d="M5470 4390 l0 -130 60 0 60 0 0 130 0 130 -60 0 -60 0 0 -130z"/>
<path d="M5762 4359 l3 -131 63 -23 63 -23 -3 131 -3 131 -60 23 c-32 13 -61
23 -62 23 -2 0 -2 -59 -1 -131z"/>
<path d="M5470 3900 l0 -130 60 0 60 0 0 130 0 130 -60 0 -60 0 0 -130z"/>
<path d="M5750 3873 l0 -128 53 -18 c28 -10 60 -21 70 -24 16 -5 17 4 15 123
l-3 128 -60 23 c-32 13 -63 23 -67 23 -4 0 -8 -57 -8 -127z"/>
<path d="M5493 3543 c-22 -4 -23 -8 -23 -134 l0 -129 60 0 60 0 0 129 c0 149
-2 152 -97 134z"/>
<path d="M5750 3381 l0 -129 62 -21 c34 -12 66 -21 70 -21 4 0 8 58 8 129 l0
129 -62 21 c-34 12 -66 21 -70 21 -4 0 -8 -58 -8 -129z"/>
<path d="M5470 2916 l0 -133 60 1 60 1 0 133 0 132 -60 0 -60 0 0 -134z"/>
<path d="M5752 2894 l3 -138 45 -12 c25 -7 55 -16 68 -19 l22 -7 0 134 0 134
-47 16 c-27 9 -58 20 -71 23 l-23 7 3 -138z"/>
<path d="M5470 2415 l0 -135 60 0 60 0 0 135 0 135 -60 0 -60 0 0 -135z"/>
<path d="M5760 2386 l0 -133 48 -11 c26 -6 55 -14 64 -17 15 -6 17 6 20 124 2
72 3 131 3 131 0 0 -30 9 -68 19 l-67 20 0 -133z"/>
<path d="M5470 1910 l0 -140 60 0 60 0 0 140 0 140 -60 0 -60 0 0 -140z"/>
<path d="M5758 1957 c-5 -155 -4 -188 6 -195 6 -4 37 -14 69 -23 l58 -16 -3
135 -3 135 -62 18 -63 17 -2 -71z"/>
<path d="M6970 3905 l0 -105 45 0 45 0 0 105 0 105 -45 0 -45 0 0 -105z"/>
<path d="M6980 3546 c0 -105 0 -106 24 -106 13 0 31 -3 40 -6 14 -5 16 7 16
100 0 105 0 106 -24 106 -13 0 -31 3 -40 6 -14 5 -16 -7 -16 -100z"/>
<path d="M6980 3175 l0 -105 40 0 40 0 0 105 0 105 -40 0 -40 0 0 -105z"/>
<path d="M6980 2820 l0 -100 40 0 40 0 0 100 0 100 -40 0 -40 0 0 -100z"/>
<path d="M6978 2455 l3 -105 40 0 39 0 0 105 0 105 -42 0 -43 0 3 -105z"/>
<path d="M6979 2206 c-2 -2 -3 -50 -1 -105 l3 -101 40 0 39 0 0 100 c0 99 0
100 -24 100 -13 0 -31 2 -38 5 -8 3 -16 4 -19 1z"/>
<path d="M6980 1845 c-4 -2 -6 -150 -2 -177 4 -37 6 -38 43 -38 l39 0 0 104 0
104 -40 4 c-22 2 -40 3 -40 3z"/>
<path d="M6977 1374 c-4 -53 -4 -100 -1 -105 3 -5 23 -9 45 -9 l39 0 0 105 0
105 -38 0 -39 0 -6 -96z"/>
<path d="M6976 1008 l0 -103 47 -3 48 -3 -3 103 -3 103 -45 3 -45 3 1 -103z"/>
<path d="M6980 635 l0 -115 45 0 45 0 0 109 0 109 -31 6 c-61 12 -59 16 -59
-109z"/>
</g>
</svg>
