<?xml version="1.0" standalone="no"?>
<!DOCTYPE svg PUBLIC "-//W3C//DTD SVG 20010904//EN"
 "http://www.w3.org/TR/2001/REC-SVG-20010904/DTD/svg10.dtd">
<svg version="1.0" xmlns="http://www.w3.org/2000/svg"
 width="1024.000000pt" height="1024.000000pt" viewBox="0 0 1024.000000 1024.000000"
 preserveAspectRatio="xMidYMid meet">

<g transform="translate(0.000000,1024.000000) scale(0.100000,-0.100000)"
fill="#000000" stroke="none">
<path d="M920 9632 c-84 -22 -144 -58 -204 -121 -72 -78 -96 -142 -107 -286
-12 -166 -11 -8125 1 -8240 16 -154 99 -283 223 -347 99 -50 -128 -48 4277
-48 2823 0 4125 3 4170 11 93 15 177 58 239 124 71 75 100 143 112 258 12 128
11 8210 -1 8306 -23 175 -134 301 -305 346 -53 13 -511 15 -4200 14 -3862 0
-4144 -1 -4205 -17z m8376 -211 c58 -26 111 -92 124 -155 8 -37 10 -1215 8
-4181 -3 -4010 -4 -4131 -22 -4165 -26 -49 -55 -79 -101 -103 l-40 -22 -4105
-3 c-2725 -1 -4123 1 -4160 8 -69 13 -128 53 -160 110 l-25 45 0 4150 c0 3307
3 4157 13 4185 16 46 76 108 127 131 39 18 193 19 4170 19 3991 0 4131 -1
4171 -19z"/>
<path d="M4145 9153 c-681 -235 -1235 -427 -1580 -548 -214 -75 -423 -148
-462 -162 l-73 -25 0 -217 0 -217 96 -78 c53 -43 92 -82 87 -86 -9 -10 -277
-110 -365 -137 l-58 -17 0 -91 0 -92 42 -33 c81 -65 148 -133 148 -151 0 -14
-19 -24 -83 -44 -46 -14 -88 -25 -95 -25 -9 0 -12 -49 -12 -188 l0 -188 95
-80 c90 -74 96 -81 93 -113 -3 -34 -5 -35 -78 -58 -41 -12 -83 -23 -92 -23
-17 0 -18 -16 -18 -189 l0 -189 96 -71 95 -72 -3 -42 -3 -42 -92 -25 -93 -24
0 -191 0 -190 95 -60 95 -60 0 -47 0 -46 -67 -20 c-38 -12 -80 -24 -95 -27
l-28 -7 0 -193 0 -193 95 -57 95 -58 0 -52 0 -53 -95 -22 -95 -22 2 -201 3
-202 92 -50 92 -50 1 -57 0 -57 -52 -15 c-29 -8 -72 -20 -96 -26 l-42 -11 2
-210 3 -211 88 -36 87 -35 0 -294 0 -293 42 -21 c24 -12 95 -45 159 -73 64
-28 117 -55 118 -61 2 -5 -75 -292 -171 -637 l-173 -628 -262 0 -263 0 0 -80
0 -80 3700 0 3700 0 0 85 0 85 -209 0 -209 0 -4 343 c-3 188 -6 1082 -7 1986
l-1 1645 -25 42 c-80 137 -296 224 -482 195 -43 -7 -86 -13 -95 -14 -10 -1
-63 47 -130 119 -63 67 -194 205 -291 307 l-177 184 0 534 c0 301 -5 565 -10
604 -29 198 -192 344 -442 396 -282 58 -550 -17 -722 -201 l-49 -53 -46 49
c-77 84 -347 371 -521 554 -92 96 -229 242 -306 325 -211 227 -373 398 -623
658 -46 48 -88 87 -95 86 -6 0 -110 -34 -231 -76z m223 -195 l-3 -141 -70 -25
c-88 -31 -1314 -454 -1530 -529 -327 -112 -599 -203 -607 -203 -4 0 -8 62 -8
138 l0 139 423 147 c232 81 609 212 837 291 228 80 530 185 670 234 140 49
263 90 273 90 16 1 17 -10 15 -141z m271 -473 c176 -167 211 -204 211 -227 0
-15 -3 -28 -6 -28 -3 0 -98 89 -211 198 -112 108 -208 198 -212 200 -5 2 -135
-45 -290 -103 -155 -58 -283 -105 -286 -105 -2 0 -3 12 -2 26 2 24 19 32 275
129 150 56 276 106 280 109 3 4 11 5 18 4 6 -2 106 -93 223 -203z m-25 -146
l196 -191 0 -159 c0 -88 -4 -159 -8 -159 -26 0 -32 30 -32 160 l0 136 -30 29
-30 29 0 -132 c0 -73 -4 -132 -8 -132 -5 0 -17 9 -27 20 -16 18 -17 33 -12
150 l7 129 -32 37 c-32 37 -33 37 -39 13 -4 -13 -7 -75 -8 -138 -1 -113 -1
-114 -21 -96 -18 16 -20 31 -20 159 l0 140 -37 38 c-20 21 -41 38 -45 38 -4 0
-8 -59 -8 -132 l0 -131 -21 19 c-12 10 -30 18 -40 16 -18 -3 -19 5 -19 132 0
75 -3 136 -7 136 -3 0 -30 -8 -60 -17 l-53 -17 0 -137 c0 -140 -3 -149 -41
-149 -5 0 -9 59 -9 134 l0 134 -55 -21 -55 -20 0 -138 c0 -78 -4 -139 -9 -139
-5 0 -16 -3 -25 -6 -13 -5 -16 12 -18 129 l-3 134 -52 -20 -53 -20 0 -137 0
-138 -31 -11 c-18 -6 -34 -11 -35 -11 -2 0 -4 73 -4 163 l0 162 268 101 c147
56 270 102 274 103 4 1 95 -85 202 -190z m-914 -228 l0 -178 -219 -72 c-120
-39 -221 -71 -225 -71 -3 0 -6 78 -6 173 l0 174 223 76 c122 41 223 76 225 76
1 1 2 -79 2 -178z m1391 51 c85 -87 687 -709 790 -817 l67 -70 6 -124 7 -125
-218 220 c-120 121 -336 340 -480 486 l-263 265 0 122 c0 66 3 121 8 121 4 0
41 -35 83 -78z m-711 -140 l0 -97 -147 -50 c-82 -27 -195 -66 -252 -87 -58
-21 -106 -38 -108 -38 -2 0 -3 44 -3 98 l0 98 98 32 c53 18 162 56 242 86 80
30 151 55 158 55 9 1 12 -25 12 -97z m-1280 -111 l0 -169 -227 -76 c-125 -42
-228 -75 -229 -73 -2 1 -4 76 -5 166 l-2 165 214 77 c118 43 222 78 232 78 15
1 17 -14 17 -168z m1423 -143 c62 -57 114 -105 117 -108 3 -4 48 -44 100 -89
66 -58 97 -92 101 -112 5 -20 3 -29 -7 -29 -7 0 -66 48 -131 108 -267 242
-293 264 -311 259 -9 -3 -123 -43 -252 -90 -129 -46 -249 -87 -266 -91 -29 -7
-31 -5 -27 18 6 28 -16 18 368 162 105 40 191 72 193 73 1 0 53 -45 115 -101z
m-825 -125 l-3 -176 -55 -18 c-183 -58 -378 -119 -384 -119 -3 0 -6 76 -6 169
0 153 2 170 18 176 9 3 107 36 217 74 110 38 203 69 208 70 4 0 6 -79 5 -176z
m-1367 120 c0 -23 16 -39 90 -93 66 -48 89 -71 89 -87 0 -13 -2 -23 -5 -23 -3
0 -46 30 -95 66 l-89 65 -128 -46 c-71 -26 -177 -64 -236 -86 l-108 -38 3 50
3 51 195 70 c107 38 211 76 230 83 49 19 50 18 51 -12z m2738 -60 l51 -58 0
-148 0 -148 -60 53 -60 52 0 153 c0 86 4 153 9 153 5 0 32 -26 60 -57z m1671
-2 l65 -16 3 -181 2 -181 -57 13 c-76 18 -260 17 -348 -1 -38 -8 -103 -31
-143 -50 -41 -19 -76 -35 -78 -35 -2 0 -4 18 -4 40 0 35 -8 48 -75 120 -76 80
-76 81 -58 103 54 69 174 147 273 178 117 37 294 41 420 10z m-2242 -73 c49
-46 140 -128 200 -183 l111 -100 0 -152 c1 -84 -3 -153 -7 -153 -26 0 -32 30
-32 152 0 128 0 129 -27 153 -16 13 -30 25 -33 25 -3 0 -3 -21 -1 -46 2 -25 0
-84 -4 -131 -7 -84 -7 -84 -27 -66 -19 17 -20 26 -14 146 l6 128 -40 42 -39
42 -1 -134 c0 -133 0 -134 -20 -116 -18 16 -20 31 -20 149 l0 132 -45 44 -45
44 0 -134 0 -133 -23 22 c-15 13 -30 19 -40 15 -15 -6 -17 8 -17 135 0 78 -2
141 -4 141 -2 0 -29 -10 -60 -21 l-56 -22 0 -132 c0 -131 0 -132 -25 -143
l-25 -12 0 136 c0 112 -2 135 -14 131 -8 -3 -32 -11 -55 -18 l-41 -12 0 -139
c0 -77 -4 -138 -9 -138 -5 0 -16 -3 -25 -6 -14 -5 -16 10 -16 130 0 75 -1 136
-2 136 -2 0 -25 -9 -53 -19 l-50 -19 -3 -140 c-2 -135 -3 -140 -25 -146 -48
-13 -48 -15 -45 151 l3 156 65 23 c36 12 153 54 260 93 107 38 198 70 202 70
3 1 47 -36 96 -81z m-1398 -181 l0 -173 -37 -10 c-21 -6 -105 -32 -188 -58
-82 -27 -169 -54 -192 -61 l-43 -13 0 167 0 168 228 75 c125 42 228 77 230 77
1 1 2 -77 2 -172z m2170 -98 l0 -144 -30 31 c-30 29 -31 33 -34 140 -2 60 -1
126 1 146 l5 36 29 -33 29 -33 0 -143z m-2922 81 c-1 -22 -5 -29 -15 -26 -8 3
-73 -17 -146 -44 -162 -62 -152 -60 -152 -32 0 21 15 29 145 77 80 29 150 54
157 54 7 1 11 -12 11 -29z m1352 -273 l0 -192 -219 -68 c-120 -37 -222 -67
-227 -67 -5 0 -8 84 -6 188 l3 187 217 72 c119 39 220 71 225 72 4 1 7 -86 7
-192z m-1400 89 l0 -85 -205 -66 c-113 -36 -212 -68 -220 -71 -13 -5 -15 6
-15 72 l1 79 147 48 c81 27 177 61 212 77 36 15 68 28 73 29 4 1 7 -37 7 -83z
m2080 -24 l0 -98 -248 -82 c-137 -45 -251 -82 -255 -82 -4 0 -7 42 -7 93 l0
93 98 32 c53 17 165 56 247 86 83 30 153 55 158 55 4 1 7 -43 7 -97z m1160
-135 l0 -139 -39 33 -39 34 -1 145 -1 144 40 -39 40 -39 0 -139z m1170 157
c83 -21 167 -64 204 -103 l29 -30 1 -2241 c1 -2001 0 -2240 -14 -2235 -174 68
-468 79 -722 29 l-28 -6 0 2260 0 2259 58 26 c54 24 136 50 192 61 47 9 215
-3 280 -20z m-1637 -92 l48 -48 -3 -159 -3 -158 -57 52 -58 53 0 154 c0 119 3
154 13 154 7 0 34 -22 60 -48z m-1973 -186 l0 -185 -142 -45 c-174 -54 -314
-96 -322 -96 -3 0 -6 81 -6 180 0 163 2 181 18 187 48 20 429 142 440 143 9 0
12 -43 12 -184z m2588 107 c22 -19 22 -25 20 -154 l-3 -134 -42 39 -43 38 0
136 0 135 23 -20 c12 -11 32 -29 45 -40z m-3275 -15 c66 -45 77 -57 77 -81 l0
-28 -27 19 c-16 10 -53 35 -84 55 l-55 37 -224 -75 c-123 -41 -227 -75 -232
-75 -4 0 -8 8 -8 18 0 16 42 34 223 99 122 45 229 81 237 82 8 0 50 -23 93
-51z m2080 -55 c39 -32 98 -83 132 -113 34 -30 94 -83 133 -118 52 -46 72 -70
72 -88 0 -13 -4 -24 -9 -24 -9 0 -91 67 -285 235 -70 61 -133 109 -139 107 -7
-2 -131 -48 -277 -103 -145 -54 -268 -99 -272 -99 -4 0 -8 13 -8 29 0 31 -37
15 460 195 52 19 101 35 109 35 8 1 45 -25 84 -56z m777 -192 l0 -155 -30 29
-30 29 0 155 0 155 30 -29 30 -29 0 -155z m589 -46 l1 -129 -45 44 -45 44 0
124 0 125 44 -39 44 -39 1 -130z m-1235 -50 l184 -160 1 -159 c1 -158 1 -159
-19 -141 -18 16 -20 31 -20 144 0 122 -1 126 -27 153 -15 15 -30 28 -35 28 -4
0 -8 -60 -8 -132 l0 -133 -20 25 c-18 22 -19 38 -16 148 l4 123 -37 34 -36 35
-3 -132 c-3 -129 -3 -130 -22 -113 -18 16 -20 32 -21 149 l-1 131 -44 39 -44
39 0 -139 0 -138 -27 26 c-16 14 -34 23 -40 21 -10 -4 -13 28 -13 137 0 130
-1 141 -17 136 -10 -2 -37 -10 -60 -17 l-42 -12 -3 -139 c-3 -137 -8 -157 -40
-158 -5 0 -8 63 -8 141 l0 140 -22 -7 c-13 -4 -39 -12 -58 -19 l-35 -12 -3
-139 c-3 -135 -7 -153 -37 -154 -6 0 -9 50 -7 136 l3 137 -28 -6 c-15 -3 -40
-10 -55 -16 l-28 -11 0 -139 0 -139 -31 -11 c-18 -6 -34 -11 -35 -11 -2 0 -4
71 -4 159 l0 158 173 62 c94 34 213 76 262 94 84 31 92 32 112 18 13 -9 106
-88 207 -176z m-926 -72 l-3 -187 -230 -67 -230 -66 -3 180 c-1 99 -1 182 2
184 5 5 438 141 454 142 10 1 12 -40 10 -186z m-1358 127 c0 -20 -4 -28 -13
-24 -7 2 -71 -16 -143 -41 -71 -25 -134 -45 -141 -45 -27 0 2 40 41 55 59 22
240 83 249 84 4 1 7 -12 7 -29z m3207 -200 c2 -72 1 -136 -2 -141 -4 -5 -24 6
-45 23 l-40 33 0 150 0 150 42 -42 41 -42 4 -131z m-3254 -71 c-9 -8 -404
-129 -422 -129 -7 0 -11 28 -11 74 l0 74 218 73 217 74 3 -79 c2 -44 -1 -83
-5 -87z m807 -32 l0 -183 -222 -63 c-123 -35 -229 -66 -235 -69 -10 -3 -13 36
-13 177 0 100 2 181 4 181 3 0 375 114 426 130 14 5 28 9 33 9 4 1 7 -81 7
-182z m2014 -64 c4 -85 5 -158 2 -161 -3 -2 -30 14 -61 38 l-55 42 0 165 0
164 54 -46 53 -46 7 -156z m558 180 l38 -37 0 -139 0 -138 -45 37 -45 36 0
139 c0 77 3 139 7 139 4 0 24 -17 45 -37z m-1294 -175 l-3 -101 -55 -19 c-30
-10 -144 -47 -252 -82 l-198 -64 0 103 0 103 43 11 c23 6 134 42 247 80 113
38 209 69 213 70 4 1 6 -45 5 -101z m1440 29 l43 -43 -3 -133 -3 -132 -42 36
-42 36 -3 139 c-2 77 -1 140 2 140 3 0 25 -19 48 -43z m-548 -175 l0 -166 -30
29 -30 29 0 159 0 158 30 -21 30 -21 0 -167z m-2859 136 c58 -40 78 -59 79
-75 0 -22 -2 -22 -62 13 -35 19 -73 40 -86 46 -19 10 -56 1 -230 -55 -272 -87
-252 -82 -252 -59 0 17 36 32 233 100 127 45 234 81 236 81 2 1 39 -23 82 -51z
m1289 -251 l0 -193 -62 -17 c-35 -9 -135 -37 -223 -62 -88 -24 -166 -45 -174
-45 -12 0 -13 29 -8 182 4 113 11 184 17 188 6 4 84 28 173 54 89 26 187 56
217 66 30 10 56 19 58 19 1 1 2 -86 2 -192z m1840 -105 c0 -120 -3 -152 -12
-146 -7 4 -25 17 -40 28 l-28 20 0 158 0 159 40 -33 40 -33 0 -153z m-908 46
c165 -133 204 -168 206 -190 2 -16 -1 -28 -7 -28 -5 0 -101 73 -212 162 l-202
162 -276 -92 c-152 -51 -282 -92 -289 -92 -6 0 -12 10 -12 23 0 22 21 31 283
120 155 53 287 96 294 96 6 1 103 -72 215 -161z m-2295 26 c-5 -5 -284 -104
-293 -104 -3 0 -4 12 -2 27 3 26 11 30 148 74 135 43 145 44 148 26 2 -10 2
-21 -1 -23z m763 -138 l0 -184 -47 -16 c-66 -21 -405 -116 -415 -116 -5 0 -7
84 -6 186 l3 186 220 63 c121 35 226 64 233 64 9 1 12 -42 12 -183z m2610 -94
l0 -144 -37 28 c-21 15 -41 33 -45 38 -4 6 -8 78 -8 161 l0 149 45 -44 45 -44
0 -144z m-1178 105 c68 -51 158 -119 200 -152 l77 -60 1 -157 c0 -87 -4 -158
-8 -158 -26 0 -32 30 -32 155 l0 130 -35 23 -35 22 0 -131 c0 -131 0 -132 -20
-114 -18 16 -20 31 -20 145 l0 126 -35 34 -35 34 0 -134 c0 -133 0 -134 -19
-115 -17 17 -21 41 -27 153 l-7 133 -37 29 c-21 17 -39 30 -41 30 -2 0 -2 -58
-1 -130 4 -129 -1 -148 -29 -114 -7 8 -21 13 -31 11 -17 -5 -18 4 -18 134 0
155 5 147 -75 121 l-50 -17 -5 -140 c-4 -123 -7 -140 -22 -143 -16 -3 -18 8
-18 132 0 75 -3 136 -6 136 -3 0 -30 -7 -60 -16 l-53 -15 -3 -142 c-3 -133 -4
-142 -23 -145 -19 -3 -20 2 -17 133 4 151 7 146 -69 123 l-39 -11 0 -144 c0
-108 -3 -143 -12 -143 -7 0 -23 -3 -35 -6 l-23 -6 0 160 0 161 128 40 c70 22
183 57 252 79 69 22 133 41 142 41 9 1 72 -41 140 -92z m533 51 l54 -43 0
-158 1 -158 -60 43 -60 42 0 158 c0 87 3 158 6 158 3 0 29 -19 59 -42z m2467
-432 c2 -53 1 -96 -2 -96 -3 0 -80 75 -172 167 l-168 168 0 100 1 100 169
-171 169 -172 3 -96z m-5236 237 c-4 -5 -423 -133 -432 -133 -2 0 -4 37 -4 83
l0 82 88 23 c48 13 146 45 217 71 l130 47 3 -84 c2 -47 1 -87 -2 -89z m3537
77 l28 -26 -3 -142 -3 -143 -42 36 -43 37 0 145 c0 161 -5 154 63 93z m-563
-206 c0 -85 -3 -154 -7 -154 -4 0 -17 10 -30 22 -22 21 -23 27 -23 175 l0 154
30 -21 30 -21 0 -155z m-1570 -79 c0 -174 -2 -196 -17 -202 -9 -4 -112 -32
-230 -63 l-213 -57 0 196 0 196 218 62 c119 34 223 62 230 62 9 1 12 -44 12
-194z m-1281 98 c70 -41 81 -51 81 -75 l0 -27 -84 50 c-46 27 -89 49 -95 49
-7 0 -67 -18 -134 -39 -67 -22 -156 -49 -197 -61 -41 -12 -87 -25 -102 -30
-25 -8 -28 -7 -28 15 0 22 11 27 133 65 72 23 170 55 217 70 47 16 95 29 107
29 12 1 58 -20 102 -46z m3089 -65 l31 -33 3 -143 c2 -78 1 -142 -2 -142 -3 0
-22 14 -43 31 l-37 30 0 145 c0 79 4 144 8 144 4 0 22 -15 40 -32z m-1128 -81
l0 -94 -72 -20 c-174 -49 -438 -123 -440 -123 -2 0 -2 42 0 93 l3 92 247 72
c136 39 250 72 255 72 4 1 7 -41 7 -92z m-1280 -114 l0 -198 -103 -24 c-56
-13 -158 -38 -226 -57 -69 -19 -128 -34 -133 -34 -5 0 -7 84 -6 187 l3 187
230 67 c127 37 231 68 233 68 1 1 2 -88 2 -196z m4146 106 c14 -29 21 -249 7
-249 -4 0 -17 10 -30 22 -22 20 -23 29 -23 151 0 116 2 128 16 116 8 -7 22
-25 30 -40z m789 30 c33 -6 88 -24 122 -39 l63 -29 0 -131 0 -130 -22 14 c-61
40 -279 61 -366 37 l-32 -10 0 139 0 139 43 9 c59 14 123 14 192 1z m-2363
-86 l38 -37 0 -133 c0 -73 -3 -133 -6 -133 -3 0 -23 15 -44 33 l-40 32 0 138
c0 75 3 137 7 137 4 0 24 -17 45 -37z m-552 -240 c0 -90 -3 -163 -8 -163 -4 0
-31 16 -60 35 l-52 36 0 169 0 169 60 -41 60 -42 0 -163z m-2780 181 c0 -19
-4 -33 -8 -30 -4 2 -73 -15 -152 -40 -80 -24 -146 -44 -147 -44 -2 0 -3 13 -3
30 0 26 5 30 43 40 31 9 246 73 265 79 1 1 2 -15 2 -35z m5050 -136 l0 -119
-30 23 -30 22 0 125 0 125 30 -29 30 -29 0 -118z m-1530 -100 l0 -139 -45 33
-44 33 -1 143 0 143 45 -37 45 -36 0 -140z m-1293 91 c259 -178 273 -189 273
-221 l0 -28 -27 17 c-55 34 -249 168 -320 220 -40 29 -78 53 -85 53 -8 0 -134
-36 -282 -80 -147 -44 -272 -80 -277 -80 -5 0 -9 13 -9 28 l0 28 268 81 c147
45 277 82 289 82 14 1 84 -41 170 -100z m2943 -108 l0 -115 -30 29 c-30 29
-30 29 -30 144 l0 115 30 -29 c30 -29 30 -29 30 -144z m-2262 129 c22 -18 22
-23 20 -180 l-3 -162 -27 22 -28 21 0 160 c0 87 3 159 8 159 4 -1 17 -9 30
-20z m-2948 -78 l0 -88 -213 -57 c-118 -31 -217 -57 -221 -57 -4 0 -6 37 -4
82 l3 81 160 47 c88 25 180 53 205 62 72 26 70 28 70 -70z m1400 -152 c0 -199
0 -200 -22 -205 -13 -2 -114 -27 -225 -55 -111 -27 -205 -50 -208 -50 -3 0 -5
88 -5 195 0 193 0 195 23 200 12 3 110 30 217 59 107 30 201 54 208 55 9 1 12
-45 12 -199z m4383 154 c33 -8 78 -24 99 -35 l38 -19 0 -1875 0 -1874 -210 2
-210 2 0 1902 0 1902 28 4 c68 10 199 6 255 -9z m-3513 -115 c90 -60 181 -124
202 -140 l38 -31 0 -154 c0 -85 -2 -154 -4 -154 -2 0 -11 3 -20 6 -14 5 -16
27 -16 139 l0 134 -29 20 c-16 12 -32 21 -36 21 -4 0 -5 -56 -3 -125 2 -69 1
-125 -2 -125 -22 1 -28 28 -33 150 -5 133 -5 134 -33 157 -16 13 -32 23 -36
23 -4 0 -9 -56 -10 -125 -3 -117 -4 -125 -20 -113 -14 11 -18 38 -24 149 l-7
135 -41 27 -41 26 -3 -134 c-1 -74 -6 -135 -11 -135 -5 0 -14 6 -21 14 -6 8
-18 12 -26 9 -12 -4 -14 18 -14 135 l0 140 -60 -15 -60 -15 0 -139 c0 -78 -4
-139 -9 -139 -5 0 -16 -3 -25 -6 -14 -5 -16 10 -16 131 l0 137 -36 -7 c-88
-16 -84 -7 -84 -165 0 -78 -4 -140 -9 -140 -5 0 -16 -3 -25 -6 -13 -5 -14 12
-11 136 l4 142 -26 -7 c-14 -3 -38 -9 -54 -12 l-29 -5 0 -144 c0 -109 -3 -144
-12 -144 -7 0 -23 -3 -35 -6 l-23 -6 0 169 0 169 248 66 c136 37 256 67 268
67 11 1 94 -49 184 -110z m2690 -152 l0 -118 -30 21 -30 21 0 127 0 126 30
-29 30 -29 0 -119z m-4164 -235 c-6 -6 -434 -112 -452 -112 -11 0 -14 37 -14
193 l0 193 233 60 232 59 3 -194 c1 -107 0 -196 -2 -199z m2412 370 l33 -27
-3 -153 -3 -152 -37 25 -38 26 0 154 c0 85 3 155 8 155 4 0 22 -13 40 -28z
m-3100 -47 c61 -34 81 -51 84 -70 3 -14 3 -27 -1 -29 -3 -2 -40 16 -82 40
l-75 44 -220 -61 c-120 -33 -227 -62 -237 -65 -15 -5 -18 -1 -15 22 3 27 8 29
228 91 123 35 226 66 229 68 6 7 1 9 89 -40z m4982 -199 l0 -130 -30 29 -30
29 0 123 0 124 30 -23 30 -22 0 -130z m-1682 -61 l3 -157 -46 37 -45 37 0 155
0 156 43 -35 42 -36 3 -157z m-578 -124 l0 -163 -27 17 c-16 10 -43 29 -60 42
l-33 24 0 164 0 165 60 -43 59 -42 1 -164z m2353 221 c27 -28 28 -31 25 -137
l-3 -108 -27 24 c-25 23 -27 30 -31 137 -2 61 -1 112 3 112 3 0 19 -13 33 -28z
m-1625 -216 l3 -146 -46 32 -45 32 0 149 0 150 43 -35 42 -36 3 -146z m-1478
50 l0 -94 -32 -11 c-34 -11 -473 -121 -483 -121 -3 0 -5 42 -5 93 l0 92 248
66 c136 37 253 67 260 68 9 1 12 -24 12 -93z m-2040 23 c0 -33 -3 -40 -15 -35
-9 3 -72 -8 -141 -24 -69 -17 -130 -30 -135 -30 -6 0 -9 14 -7 32 l3 31 135
33 c74 18 141 32 148 33 8 1 12 -13 12 -40z m1360 -187 l0 -198 -230 -55 -230
-56 2 195 3 195 220 57 c121 32 223 58 228 59 4 0 7 -88 7 -197z m1554 167
l26 -20 0 -161 0 -161 -32 25 -33 26 -3 156 c-1 87 1 156 6 156 5 0 21 -9 36
-21z m1989 -67 c14 -13 17 -33 17 -134 l0 -119 -30 23 -30 22 0 118 c0 125 1
126 43 90z m-4947 -190 c-5 -4 -232 -63 -378 -97 l-58 -13 0 88 0 87 58 12
c31 6 129 31 217 54 l160 42 3 -84 c2 -46 0 -86 -2 -89z m804 -57 c0 -194 0
-195 -22 -200 -13 -3 -110 -25 -215 -50 -106 -25 -202 -45 -213 -45 -20 0 -20
5 -18 187 l3 187 225 57 c124 31 228 58 233 58 4 1 7 -87 7 -194z m4290 -3 l0
-123 -30 21 -30 21 0 132 0 131 30 -29 30 -29 0 -124z m-1872 130 l32 -24 0
-150 0 -149 -45 31 -45 31 0 150 c0 117 3 149 13 143 6 -4 27 -19 45 -32z
m-889 -118 c172 -107 201 -129 201 -150 0 -13 -3 -24 -6 -24 -8 0 -84 45 -175
103 -36 23 -100 64 -142 90 l-77 49 -242 -56 c-134 -31 -267 -63 -295 -70
l-53 -14 0 29 c0 33 -19 26 275 95 110 26 223 52 250 59 28 7 53 13 56 14 3 1
97 -56 208 -125z m2853 39 c28 -26 28 -29 28 -142 l0 -115 -35 34 -35 34 0
108 c0 59 3 108 7 108 4 0 20 -12 35 -27z m-1789 -56 c15 -12 17 -33 17 -160
l0 -147 -45 32 -45 32 0 149 0 148 28 -20 c15 -11 35 -27 45 -34z m-3278 -29
c75 -38 85 -46 85 -70 l0 -27 -75 41 -76 40 -207 -51 c-285 -69 -282 -69 -282
-39 0 22 10 26 218 77 119 30 224 57 232 62 8 5 16 9 17 9 2 0 41 -19 88 -42z
m2330 -187 l60 -36 3 -163 c2 -161 2 -163 -18 -152 -18 10 -20 20 -20 139 l0
129 -32 21 -33 20 -3 -130 c-2 -125 -3 -129 -22 -119 -18 10 -20 22 -20 144
l0 134 -32 21 -33 20 -3 -124 c-1 -69 -6 -125 -11 -125 -23 0 -31 37 -37 159
l-7 132 -42 24 c-23 14 -44 25 -46 25 -2 0 -3 -63 -1 -141 l3 -140 -25 16
c-14 9 -30 14 -36 10 -7 -4 -10 41 -10 140 l0 146 -37 -7 c-96 -18 -88 -3 -91
-159 -2 -133 -7 -154 -34 -155 -5 0 -8 63 -8 140 0 79 -4 140 -9 140 -5 0 -32
-5 -60 -12 l-51 -11 0 -143 c0 -144 -3 -154 -39 -154 -4 0 -5 58 -3 130 2 71
2 136 -1 143 -4 11 -15 12 -56 3 l-51 -10 0 -147 c0 -156 -1 -159 -51 -159
-18 0 -19 9 -19 169 l0 169 93 21 c50 12 168 38 261 59 l170 39 145 -85 c80
-47 173 -101 206 -121z m1098 105 c16 -12 17 -29 15 -154 l-3 -141 -42 27 -43
27 0 148 0 148 28 -20 c15 -11 35 -27 45 -35z m-775 -1 c34 -23 53 -43 54 -58
4 -41 3 -307 -1 -307 -16 0 -111 74 -113 88 -4 45 -2 312 2 312 3 0 29 -16 58
-35z m2192 -217 c0 -125 -1 -126 -42 -90 -15 13 -18 33 -18 134 l0 119 30 -23
30 -22 0 -118z m-3560 -43 c0 -107 -2 -195 -4 -195 -2 0 -104 -22 -227 -50
-123 -27 -227 -50 -231 -50 -10 0 -10 361 0 376 4 6 70 26 147 44 77 18 172
40 210 50 116 30 105 48 105 -175z m1578 -41 l2 -166 -32 20 -33 21 -3 167 -2
166 32 -20 33 -21 3 -167z m2112 -31 c0 -68 -3 -123 -7 -123 -4 0 -17 10 -30
22 -22 20 -23 29 -23 152 l0 130 30 -29 30 -29 0 -123z m-5050 125 c0 -43 0
-43 -37 -44 -32 0 -184 -31 -245 -50 -15 -4 -18 1 -18 33 l0 39 138 31 c75 17
143 31 150 32 8 1 12 -13 12 -41z m760 -182 c0 -177 -2 -195 -17 -200 -10 -3
-116 -25 -236 -49 l-217 -44 2 190 3 190 215 49 c118 26 219 50 225 52 5 3 13
5 18 5 4 1 7 -86 7 -193z m4393 106 c15 -17 17 -36 15 -135 l-3 -115 -26 22
c-25 21 -26 29 -31 144 -5 111 -5 121 11 113 9 -5 24 -18 34 -29z m-1986 -8
l33 -25 0 -160 c0 -87 -3 -159 -6 -159 -4 0 -22 9 -40 21 l-34 21 0 164 c0 90
3 164 7 164 3 0 21 -11 40 -26z m-1131 -211 c-5 -5 -482 -102 -504 -103 -10 0
-12 21 -10 87 l3 88 50 13 c28 6 142 34 255 60 l205 48 3 -94 c1 -52 1 -97 -2
-99z m-2076 89 l0 -88 -142 -34 c-79 -18 -178 -41 -220 -50 l-78 -18 0 87 0
87 218 51 c119 28 218 52 220 52 1 1 2 -39 2 -87z m3410 -180 l0 -153 -42 25
-43 26 -3 160 -3 161 45 -33 45 -33 1 -153z m150 -103 l0 -150 -45 31 -45 31
0 150 0 150 45 -31 45 -31 0 -150z m1383 153 c14 -13 17 -34 17 -144 l0 -129
-30 21 -30 21 0 130 c0 136 0 137 43 101z m-2173 -43 l50 -31 0 -164 c0 -90
-3 -164 -6 -164 -3 0 -28 12 -55 28 l-49 27 0 168 c0 92 2 167 5 167 3 0 27
-14 55 -31z m-2654 -10 c68 -28 74 -33 74 -60 0 -16 -4 -29 -10 -29 -5 0 -42
14 -80 32 l-71 31 -97 -22 c-93 -22 -364 -81 -369 -81 -2 0 -3 14 -3 30 0 17
3 30 8 30 4 0 102 22 217 49 116 27 220 50 233 50 13 1 57 -13 98 -30z m1284
-159 c0 -119 4 -180 11 -180 5 0 141 25 302 55 161 30 309 57 330 61 l37 6 0
-90 0 -90 -187 -36 c-249 -47 -1033 -186 -1718 -305 -159 -28 -314 -55 -344
-61 -101 -19 -92 -43 -89 232 l3 243 135 27 c202 40 180 56 180 -133 l0 -161
28 5 c15 3 75 14 135 23 l107 18 0 168 c0 92 1 168 3 168 2 0 101 20 220 45
120 25 224 45 232 45 13 0 15 -27 15 -171 l0 -171 48 7 c96 14 87 -7 84 193
l-3 177 228 51 c125 28 231 52 236 53 4 0 7 -80 7 -179z m821 124 c63 -32 157
-76 209 -100 80 -36 95 -47 98 -69 3 -19 -1 -25 -15 -25 -11 0 -108 44 -216
99 l-197 98 -78 -19 c-86 -21 -459 -98 -473 -98 -5 0 -9 11 -9 23 0 23 10 26
203 70 111 26 229 53 262 61 33 8 70 14 81 15 12 1 73 -24 135 -55z m2871
-150 c2 -74 0 -134 -3 -134 -4 0 -18 9 -33 21 -26 20 -26 21 -26 162 l0 141
29 -28 c30 -29 30 -29 33 -162z m-2112 -91 c0 -90 -2 -163 -5 -163 -4 0 -19 7
-35 15 l-30 16 0 169 0 170 35 -22 35 -23 0 -162z m2206 161 l34 -26 0 -124
c0 -68 -3 -124 -6 -124 -3 0 -19 9 -34 20 l-29 21 -3 129 c-2 72 -2 130 0 130
2 0 19 -12 38 -26z m-1948 -313 c1 -88 0 -161 -2 -161 -3 0 -21 8 -41 17 l-35
17 0 168 0 168 38 -23 37 -24 3 -162z m134 73 l38 -27 0 -153 c0 -85 -3 -154
-6 -154 -12 0 -74 42 -74 50 0 4 -2 76 -4 159 -2 83 -2 151 2 151 3 0 23 -12
44 -26z m1593 -182 c4 -73 5 -135 2 -138 -3 -3 -19 2 -36 12 l-31 18 0 138 0
137 29 -17 29 -16 7 -134z m-1442 83 l37 -26 0 -154 c0 -85 -2 -155 -5 -155
-3 0 -23 11 -45 25 l-40 25 0 155 c0 85 3 155 8 155 4 0 24 -11 45 -25z m1566
-178 c1 -145 1 -145 -41 -109 -16 13 -18 34 -18 154 l0 140 29 -24 30 -23 0
-138z m107 52 l34 -21 0 -124 c0 -68 -2 -124 -5 -124 -2 0 -20 8 -40 17 l-35
17 0 128 c0 70 3 128 6 128 4 0 22 -9 40 -21z m-3073 -442 c37 -144 92 -354
121 -467 30 -113 79 -300 110 -417 30 -116 64 -243 75 -282 l20 -71 -55 -2
c-30 -1 -63 -2 -74 -2 -17 -1 -30 20 -71 109 -91 200 -136 296 -307 670 -93
204 -179 390 -190 415 -11 25 -39 85 -62 135 -23 49 -42 94 -43 99 -1 5 88 24
198 42 110 17 202 32 205 33 3 0 35 -117 73 -262z m2837 16 c0 -73 -2 -133 -5
-133 -2 0 -16 5 -30 12 l-25 11 0 139 0 139 30 -18 30 -17 0 -133z m101 66
l29 -20 0 -130 0 -130 -29 17 c-26 15 -29 23 -35 92 -8 94 -8 192 0 192 3 0
19 -9 35 -21z m-4604 -81 c-3 -7 -59 -134 -125 -283 -165 -373 -402 -915 -413
-942 -8 -21 -15 -23 -85 -23 -57 0 -75 3 -71 13 6 17 173 606 257 912 40 143
76 267 81 275 5 11 51 21 156 36 182 27 207 28 200 12z m4741 -8 l32 -20 0
-124 0 -124 -40 21 -40 22 0 123 c0 67 3 122 8 122 4 0 22 -9 40 -20z m-835
-102 l107 -11 0 -564 0 -563 -295 0 -295 0 0 554 0 555 53 10 c153 32 266 37
430 19z m-3274 -154 c52 -19 96 -36 98 -38 3 -3 -34 -393 -83 -883 l-6 -63
-450 0 c-414 0 -450 1 -444 16 6 15 109 202 359 649 49 88 116 210 149 270 34
61 67 120 74 132 l13 21 98 -35 c54 -19 140 -50 192 -69z m2046 54 c3 -13 59
-249 124 -525 l117 -503 -58 0 c-32 0 -61 -1 -64 -2 -7 -3 -78 156 -308 696
-75 176 -135 321 -133 323 6 5 219 31 269 32 42 1 48 -2 53 -21z m1800 -100
l25 -11 0 -139 c0 -76 -2 -138 -5 -138 -2 0 -16 5 -30 12 l-25 11 0 139 c0 76
2 138 5 138 2 0 16 -5 30 -12z m133 -74 c21 -14 22 -22 22 -150 l0 -135 -30
16 -30 16 0 134 c0 74 3 135 8 135 4 0 18 -7 30 -16z m126 -75 l36 -21 0 -124
0 -125 -40 23 -40 23 0 123 c0 67 2 122 4 122 3 0 21 -9 40 -21z m-3826 -212
l66 -139 -54 -219 -54 -219 -67 0 c-36 0 -68 2 -70 5 -3 2 -2 42 2 87 15 159
59 613 66 663 l6 50 20 -45 c10 -25 49 -107 85 -183z m610 -182 c88 -196 164
-365 167 -375 6 -20 0 -20 -275 -20 -263 0 -281 1 -276 18 3 9 23 82 45 162
22 80 67 235 101 345 33 110 60 206 60 213 0 39 32 -23 178 -343z m736 -187
c47 -103 86 -191 86 -195 0 -5 -27 -9 -60 -9 -33 0 -60 1 -60 2 0 12 -51 352
-56 372 -12 47 2 21 90 -170z"/>
<path d="M6470 7000 l0 -130 60 0 60 0 0 130 0 130 -60 0 -60 0 0 -130z"/>
<path d="M6740 6969 c0 -115 2 -130 18 -135 9 -4 45 -19 80 -35 l62 -28 0 128
0 128 -52 26 c-29 14 -65 31 -80 36 l-28 11 0 -131z"/>
<path d="M6498 6633 l-28 -4 0 -130 0 -129 60 0 60 0 0 129 c0 125 -1 129 -22
135 -13 3 -27 5 -33 4 -5 0 -22 -3 -37 -5z"/>
<path d="M6756 6539 c-8 -78 -8 -173 0 -193 3 -9 13 -16 20 -16 8 0 37 -11 64
-25 27 -14 52 -25 55 -25 3 0 5 60 5 133 l0 133 -65 27 c-36 15 -67 27 -69 27
-2 0 -6 -28 -10 -61z"/>
<path d="M6470 6013 l0 -128 60 0 60 0 0 128 0 127 -60 0 -60 0 0 -127z"/>
<path d="M6760 5983 l0 -128 58 -23 c31 -13 63 -25 70 -29 9 -4 12 25 12 125
l0 129 -61 27 c-33 14 -65 26 -70 26 -5 0 -9 -55 -9 -127z"/>
<path d="M6470 5530 l0 -130 60 0 60 0 0 130 0 130 -60 0 -60 0 0 -130z"/>
<path d="M6762 5499 l3 -131 63 -23 63 -23 -3 131 -3 131 -60 23 c-32 13 -61
23 -62 23 -2 0 -2 -59 -1 -131z"/>
<path d="M6470 5040 l0 -130 60 0 60 0 0 130 0 130 -60 0 -60 0 0 -130z"/>
<path d="M6750 5012 l0 -128 58 -20 c31 -10 63 -20 70 -22 9 -3 12 27 12 123
l0 126 -42 18 c-24 10 -55 21 -70 25 l-28 6 0 -128z"/>
<path d="M6493 4683 c-22 -4 -23 -8 -23 -134 l0 -129 60 0 61 0 -3 133 -3 132
-35 1 c-19 1 -45 0 -57 -3z"/>
<path d="M6752 4519 l3 -131 60 -19 c33 -10 63 -19 68 -19 4 0 7 58 7 129 l0
129 -62 21 c-34 12 -66 21 -70 21 -5 0 -7 -59 -6 -131z"/>
<path d="M6470 4056 l0 -133 60 1 60 1 0 133 0 132 -60 0 -60 0 0 -134z"/>
<path d="M6752 4034 l3 -136 60 -19 c33 -10 63 -19 68 -19 4 0 7 59 7 131 l0
130 -42 18 c-24 10 -56 21 -71 25 l-28 7 3 -137z"/>
<path d="M6470 3555 l0 -135 60 0 60 0 0 135 0 135 -60 0 -60 0 0 -135z"/>
<path d="M6758 3655 c-2 -2 -2 -61 0 -133 l3 -129 47 -11 c26 -6 55 -14 64
-17 15 -6 17 6 20 124 2 72 3 131 3 131 0 0 -30 9 -67 19 -36 11 -68 18 -70
16z"/>
<path d="M6470 3050 l0 -140 60 0 60 0 0 140 0 140 -60 0 -60 0 0 -140z"/>
<path d="M6758 3102 c-1 -37 -3 -97 -3 -135 l-2 -67 41 -11 c23 -5 53 -14 69
-19 l27 -9 0 134 0 133 -52 17 c-29 9 -59 18 -65 20 -10 3 -14 -14 -15 -63z"/>
<path d="M7970 5045 l0 -105 45 0 45 0 0 105 0 105 -45 0 -45 0 0 -105z"/>
<path d="M7980 4686 c0 -105 0 -106 24 -106 13 0 31 -3 40 -6 14 -5 16 7 16
100 0 105 0 106 -24 106 -13 0 -31 3 -40 6 -14 5 -16 -7 -16 -100z"/>
<path d="M7980 4315 l0 -105 40 0 40 0 0 105 0 105 -40 0 -40 0 0 -105z"/>
<path d="M7980 3960 l0 -100 40 0 40 0 0 100 0 100 -40 0 -40 0 0 -100z"/>
<path d="M7978 3595 l3 -105 40 0 39 0 0 105 0 105 -42 0 -43 0 3 -105z"/>
<path d="M7979 3346 c-2 -2 -3 -50 -1 -105 l3 -101 40 0 39 0 0 100 c0 99 0
100 -24 100 -13 0 -31 2 -38 5 -8 3 -16 4 -19 1z"/>
<path d="M7980 2985 c0 0 -2 -38 -5 -85 -6 -119 -2 -130 46 -130 l39 0 0 104
0 104 -40 4 c-22 2 -40 3 -40 3z"/>
<path d="M7977 2514 c-4 -53 -4 -100 -1 -105 3 -5 23 -9 45 -9 l39 0 0 105 0
105 -38 0 -39 0 -6 -96z"/>
<path d="M7975 2148 l0 -103 48 -3 48 -3 -3 103 -3 103 -45 3 -45 3 0 -103z"/>
<path d="M7980 1775 l0 -115 45 0 45 0 0 109 0 109 -31 6 c-61 12 -59 16 -59
-109z"/>
</g>
</svg>
