<?xml version="1.0" standalone="no"?>
<!DOCTYPE svg PUBLIC "-//W3C//DTD SVG 20010904//EN"
 "http://www.w3.org/TR/2001/REC-SVG-20010904/DTD/svg10.dtd">
<svg version="1.0" xmlns="http://www.w3.org/2000/svg"
 width="403.000000pt" height="153.000000pt" viewBox="0 0 403.000000 153.000000"
 preserveAspectRatio="xMidYMid meet">

<g transform="translate(0.000000,153.000000) scale(0.100000,-0.100000)"
fill="#000000" stroke="none">
<path d="M141 1462 c-19 -9 -44 -30 -55 -45 -21 -28 -21 -39 -24 -643 -3 -673
-4 -655 56 -699 26 -19 45 -20 662 -23 601 -2 637 -1 669 16 72 39 71 29 71
572 l0 484 -178 178 -178 178 -494 0 c-452 0 -498 -2 -529 -18z m1171 -189
l168 -168 0 -468 c0 -500 -1 -511 -49 -537 -13 -6 -236 -10 -646 -10 l-627 0
-29 29 -29 30 2 614 c3 599 4 615 23 637 11 12 29 26 40 31 11 4 236 8 500 8
l480 1 167 -167z"/>
<path d="M1120 1198 l0 -118 110 0 c61 0 110 3 110 7 0 4 -49 57 -110 118
l-110 112 0 -119z"/>
<path d="M230 765 l0 -545 45 0 c38 0 45 3 45 20 0 15 -7 20 -25 20 l-25 0 0
105 0 105 30 0 c25 0 30 4 30 25 0 21 -5 25 -30 25 l-30 0 0 110 0 110 55 0
c43 0 56 4 65 19 5 11 10 22 10 25 0 3 -29 6 -65 6 l-65 0 0 110 0 111 103 -3
102 -3 3 -73 c2 -62 5 -73 18 -68 9 3 18 6 20 6 2 0 4 32 4 71 l0 71 125 -4
125 -3 0 127 0 127 113 3 c104 3 112 4 112 23 0 20 -8 20 -382 23 l-383 2 0
-545z m250 390 l0 -105 -105 0 -105 0 0 105 0 105 105 0 105 0 0 -105z m250 0
l0 -105 -105 0 -105 0 0 105 0 105 105 0 105 0 0 -105z"/>
<path d="M902 1064 c-43 -30 -30 -61 66 -157 l87 -87 -220 0 c-243 1 -263 -3
-330 -62 -20 -17 -48 -54 -63 -82 -26 -50 -27 -57 -30 -253 l-4 -203 61 0 61
0 0 183 c0 170 2 185 23 221 40 70 63 76 302 76 l210 0 -93 -93 c-70 -70 -92
-99 -92 -119 0 -29 32 -58 64 -58 12 0 78 58 168 147 123 122 148 152 148 176
0 24 -26 55 -147 178 -94 95 -155 149 -168 149 -11 0 -31 -7 -43 -16z"/>
<path d="M624 505 c-10 -25 6 -35 57 -35 l49 0 0 -105 0 -105 -56 0 c-47 0
-55 -3 -52 -17 3 -17 30 -18 366 -21 l362 -2 0 145 c0 144 0 145 -22 145 -23
0 -23 -2 -23 -123 l0 -122 -107 -3 -108 -3 0 51 c0 44 -3 51 -17 48 -14 -2
-19 -15 -21 -51 l-3 -48 -137 3 -137 3 -3 128 -3 127 -70 0 c-52 0 -71 -4 -75
-15z"/>
<path d="M3391 1064 c-37 -26 -21 -74 25 -74 28 0 46 23 42 51 -4 30 -40 42
-67 23z"/>
<path d="M2130 864 l0 -205 35 3 36 3 2 203 2 202 -37 0 -38 0 0 -206z"/>
<path d="M1800 860 l0 -200 95 0 c60 0 108 5 130 14 73 31 92 118 36 168 l-31
27 25 25 c34 34 34 94 2 124 -33 31 -79 42 -174 42 l-83 0 0 -200z m188 118
c7 -7 12 -21 12 -33 0 -33 -20 -45 -72 -45 l-48 0 0 45 0 45 48 0 c26 0 53 -5
60 -12z m6 -164 c40 -40 9 -84 -62 -89 l-52 -3 0 54 0 54 49 0 c32 0 55 -6 65
-16z"/>
<path d="M3828 993 c-2 -26 -8 -38 -18 -38 -17 0 -20 -5 -20 -40 0 -18 5 -25
20 -25 19 0 20 -7 20 -98 0 -119 9 -132 88 -132 51 0 52 1 52 30 0 27 -3 30
-30 30 l-30 0 0 85 0 85 30 0 c28 0 30 3 30 36 0 34 -1 35 -32 32 -32 -3 -33
-2 -32 35 2 37 2 37 -36 37 -38 0 -39 -1 -42 -37z"/>
<path d="M2250 843 c0 -141 9 -163 68 -181 38 -13 46 -12 82 6 31 15 40 16 40
6 0 -9 12 -14 35 -14 l35 0 0 150 0 150 -35 0 -35 0 0 -92 c0 -116 -12 -142
-63 -146 -32 -3 -38 0 -47 23 -6 14 -10 69 -10 121 l0 94 -35 0 -35 0 0 -117z"/>
<path d="M2620 944 c-46 -29 -64 -65 -68 -129 -5 -96 45 -156 132 -157 59 -1
104 18 121 53 8 15 15 30 15 34 0 12 -52 3 -88 -15 -31 -16 -45 -18 -66 -10
-21 8 -46 43 -46 66 0 2 48 4 106 4 l106 0 -7 37 c-8 46 -27 82 -54 107 -29
26 -117 32 -151 10z m114 -66 c9 -12 16 -26 16 -30 0 -5 -29 -8 -65 -8 -36 0
-65 3 -65 8 0 25 34 52 65 52 24 0 39 -7 49 -22z"/>
<path d="M2857 952 c-3 -4 -5 -94 -5 -200 l0 -192 39 0 39 0 0 64 0 64 38 -19
c65 -34 131 -6 164 68 34 76 10 170 -52 207 -38 22 -92 20 -123 -4 -25 -20
-25 -20 -30 0 -4 14 -14 20 -35 20 -17 0 -33 -3 -35 -8z m173 -62 c24 -13 44
-74 35 -108 -16 -65 -77 -83 -114 -36 -25 31 -27 74 -6 114 20 39 49 49 85 30z"/>
<path d="M3179 956 c-2 -2 -3 -70 -1 -150 l3 -146 34 0 33 0 4 96 c3 86 5 98
27 115 13 10 36 19 52 19 26 0 29 3 29 35 0 32 -2 35 -30 35 -19 0 -40 -9 -55
-25 l-25 -24 0 24 c0 22 -5 25 -33 25 -19 0 -36 -2 -38 -4z"/>
<path d="M3380 811 l0 -151 38 0 37 0 -2 147 -2 148 -35 3 -36 3 0 -150z"/>
<path d="M3500 810 l0 -150 40 0 40 0 0 98 c0 104 3 113 38 131 19 10 28 10
48 -4 23 -15 24 -20 24 -120 l0 -105 40 0 40 0 0 104 c0 56 -5 117 -11 134
-13 37 -48 62 -88 62 -33 0 -81 -19 -81 -32 0 -4 -4 -8 -10 -8 -5 0 -10 9 -10
20 0 16 -7 20 -35 20 l-35 0 0 -150z"/>
<path d="M1800 360 l0 -200 40 0 40 0 0 80 0 80 80 0 80 0 0 35 0 35 -80 0
-80 0 0 50 0 50 90 0 90 0 0 35 0 35 -130 0 -130 0 0 -200z"/>
<path d="M2090 360 l0 -200 40 0 40 0 0 200 0 200 -40 0 -40 0 0 -200z"/>
<path d="M2262 440 c-83 -51 -82 -203 1 -264 36 -26 122 -28 161 -3 91 60 88
224 -4 272 -42 22 -118 19 -158 -5z m128 -60 c14 -14 20 -33 20 -68 0 -63 -21
-92 -65 -92 -44 0 -65 29 -65 90 0 25 7 56 16 68 19 28 67 29 94 2z"/>
<path d="M2500 448 c0 -7 18 -74 39 -148 l38 -135 40 -3 40 -3 24 90 c13 50
26 88 28 85 3 -3 15 -42 26 -87 l21 -82 43 0 44 0 38 140 c22 77 39 144 39
148 0 5 -17 7 -37 5 l-38 -3 -22 -90 c-12 -49 -22 -92 -23 -95 -1 -3 -8 22
-16 55 -35 142 -30 135 -74 135 -31 0 -40 -4 -41 -17 0 -10 -11 -54 -23 -98
l-23 -80 -23 98 -24 97 -38 0 c-24 0 -38 -5 -38 -12z"/>
</g>
</svg>
